{"title":"Ikiru-720p MP4 AAC x264 BRRip 1952-CC","uid":8123801,"size":3121327837,"categoryP":"video","categoryS":"hd___movies","magnet":"?xt=urn:btih:b89e644eb6b3e846e8bbdc3105302e4d54ea6c29&amp;dn=Ikiru-720p+MP4+AAC+x264+BRRip+1952-CC&amp;tr=udp%3A%2F%2Ftracker.openbittorrent.com%3A80&amp;tr=udp%3A%2F%2Fopen.demonii.com%3A1337&amp;tr=udp%3A%2F%2Ftracker.coppersurfer.tk%3A6969&amp;tr=udp%3A%2F%2Fexodus.desync.com%3A6969","seeders":11,"leechers":5,"uploader":"Caveman44","files":-1,"time":1360446608,"description":" &lt;a href=&quot;http://www.imdb.com/title/tt0044741/&quot; rel=&quot;nofollow&quot; target=&quot;_NEW&quot;&gt;http://www.imdb.com/title/tt0044741/&lt;/a&gt;\n\nSource: Ikiru.1952.720p.BluRay.x264.AC3.EA Thanks!\n\nSubs: Arabic, English, Farsi-Persian, French, Hungarian, Portuguese, Spanish and Vietnamese.\n\nSample and Screens included.\n\nGeneral\nComplete name                            : Ikiru-720p MP4 AAC x264 BRRip 1952-CC.mp4\nFormat                                   : MPEG-4\nFormat profile                           : Base Media\nCodec ID                                 : isom\nFile size                                : 2.88 GiB\nDuration                                 : 2h 22mn\nOverall bit rate mode                    : Variable\nOverall bit rate                         : 2 879 Kbps\nEncoded date                             : UTC 2013-01-28 18:16:14\n\nVideo\nID                                       : 1\nFormat                                   : AVC\nFormat/Info                              : Advanced Video Codec\nFormat profile                           : &lt;a class=&quot;__cf_email__&quot; href=&quot;/cdn-cgi/l/email-protection&quot; data-cfemail=&quot;743c1d131c3438405a45&quot;&gt;[email&amp;#160;protected]&lt;/a&gt;&lt;script cf-hash='f9e31' type=&quot;text/javascript&quot;&gt;\n/* &lt;![CDATA[ */!function(){try{var t=&quot;currentScript&quot;in document?document.currentScript:function(){for(var t=document.getElementsByTagName(&quot;script&quot;),e=t.length;e--;)if(t[e].getAttribute(&quot;cf-hash&quot;))return t[e]}();if(t&amp;&amp;t.previousSibling){var e,r,n,i,c=t.previousSibling,a=c.getAttribute(&quot;data-cfemail&quot;);if(a){for(e=&quot;&quot;,r=parseInt(a.substr(0,2),16),n=2;a.length-n;n+=2)i=parseInt(a.substr(n,2),16)^r,e+=String.fromCharCode(i);e=document.createTextNode(e),c.parentNode.replaceChild(e,c)}}}catch(u){}}();/* ]]&gt; */&lt;/script&gt;\nFormat settings, CABAC                   : Yes\nFormat settings, ReFrames                : 5 frames\nCodec ID                                 : avc1\nCodec ID/Info                            : Advanced Video Coding\nDuration                                 : 2h 22mn\nBit rate                                 : 2 589 Kbps\nMaximum bit rate                         : 9 233 Kbps\nWidth                                    : 960 pixels\nHeight                                   : 720 pixels\nDisplay aspect ratio                     : 4:3\nFrame rate mode                          : Variable\nFrame rate                               : 23.976 fps\nMinimum frame rate                       : 23.810 fps\nMaximum frame rate                       : 24.390 fps\nColor space                              : YUV\nChroma subsampling                       : 4:2:0\nBit depth                                : 8 bits\nScan type                                : Progressive\nBits/(Pixel*Frame)                       : 0.156\nStream size                              : 2.58 GiB (90%)\nWriting library                          : x264 core 112\n\nAudio\nID                                       : 2\nFormat                                   : AAC\nFormat/Info                              : Advanced Audio Codec\nFormat profile                           : LC\nCodec ID                                 : 40\nDuration                                 : 2h 22mn\nBit rate mode                            : Variable\nBit rate                                 : 288 Kbps\nMaximum bit rate                         : 334 Kbps\nChannel(s)                               : 2 channels\nChannel positions                        : Front: L R\nSampling rate                            : 48.0 KHz\nCompression mode                         : Lossy\nDelay relative to video                  : 83ms\nStream size                              : 300 MiB (10%)\nLanguage                                 : Japanese\n\nEnjoy...\n\nRequested by DreamExtractor\n\nComing soon: Apocalypse Hitler, Cruel Intentions and more...","torrent":{"xt":"urn:btih:b89e644eb6b3e846e8bbdc3105302e4d54ea6c29","amp;dn":"Ikiru-720p+MP4+AAC+x264+BRRip+1952-CC","amp;tr":["udp%3A%2F%2Ftracker.openbittorrent.com%3A80","udp%3A%2F%2Fopen.demonii.com%3A1337","udp%3A%2F%2Ftracker.coppersurfer.tk%3A6969","udp%3A%2F%2Fexodus.desync.com%3A6969"],"infoHash":"b89e644eb6b3e846e8bbdc3105302e4d54ea6c29","infoHashBuffer":{"type":"Buffer","data":[184,158,100,78,182,179,232,70,232,187,220,49,5,48,46,77,84,234,108,41]},"announce":[],"urlList":[]}}